<svg width="854" height="583" viewBox="0 0 854 583" fill="none" xmlns="http://www.w3.org/2000/svg">
<rect x="0.5" y="0.5" width="853" height="582" rx="14.5" fill="white" stroke="#404040"/>
<circle cx="31.5" cy="26.5" r="7.5" fill="#FF0000"/>
<circle cx="81.5" cy="26.5" r="7.5" fill="#70FF00"/>
<circle cx="56.5" cy="26.5" r="7.5" fill="#FF6B00"/>
<circle cx="56.5" cy="26.5" r="7.5" fill="#FF6B00"/>
<line x1="0.999695" y1="51" x2="854" y2="51" stroke="#404040"/>
<path d="M0.5 51.5H853.5V568C853.5 576.008 847.008 582.5 839 582.5H15C6.99188 582.5 0.5 576.008 0.5 568V51.5Z" fill="#818CF8" stroke="#0F172A"/>
<rect x="248" y="130" width="360" height="373" rx="15" fill="white"/>
<path d="M262.098 109.547H258.987C258.93 109.144 258.814 108.787 258.639 108.474C258.464 108.157 258.239 107.887 257.964 107.665C257.69 107.442 257.373 107.272 257.013 107.153C256.658 107.035 256.272 106.976 255.855 106.976C255.102 106.976 254.446 107.163 253.888 107.537C253.329 107.906 252.896 108.446 252.588 109.156C252.28 109.862 252.126 110.719 252.126 111.727C252.126 112.764 252.28 113.635 252.588 114.341C252.901 115.046 253.336 115.579 253.895 115.939C254.454 116.299 255.1 116.479 255.834 116.479C256.246 116.479 256.627 116.424 256.977 116.315C257.332 116.206 257.647 116.048 257.922 115.839C258.196 115.626 258.424 115.368 258.604 115.065C258.788 114.762 258.916 114.417 258.987 114.028L262.098 114.043C262.018 114.71 261.816 115.354 261.494 115.974C261.177 116.59 260.749 117.142 260.209 117.629C259.674 118.112 259.035 118.496 258.291 118.78C257.553 119.059 256.717 119.199 255.784 119.199C254.487 119.199 253.327 118.905 252.304 118.318C251.286 117.731 250.481 116.881 249.889 115.768C249.302 114.656 249.009 113.309 249.009 111.727C249.009 110.141 249.307 108.792 249.903 107.679C250.5 106.566 251.31 105.719 252.332 105.136C253.355 104.549 254.506 104.256 255.784 104.256C256.627 104.256 257.408 104.374 258.128 104.611C258.852 104.848 259.494 105.193 260.053 105.648C260.611 106.098 261.066 106.649 261.416 107.303C261.771 107.956 261.999 108.704 262.098 109.547ZM277.67 111.727C277.67 113.313 277.369 114.663 276.768 115.776C276.171 116.888 275.357 117.738 274.325 118.325C273.297 118.908 272.142 119.199 270.859 119.199C269.566 119.199 268.406 118.905 267.379 118.318C266.351 117.731 265.539 116.881 264.942 115.768C264.346 114.656 264.048 113.309 264.048 111.727C264.048 110.141 264.346 108.792 264.942 107.679C265.539 106.566 266.351 105.719 267.379 105.136C268.406 104.549 269.566 104.256 270.859 104.256C272.142 104.256 273.297 104.549 274.325 105.136C275.357 105.719 276.171 106.566 276.768 107.679C277.369 108.792 277.67 110.141 277.67 111.727ZM274.552 111.727C274.552 110.7 274.398 109.833 274.09 109.128C273.787 108.422 273.359 107.887 272.805 107.523C272.251 107.158 271.602 106.976 270.859 106.976C270.115 106.976 269.467 107.158 268.913 107.523C268.359 107.887 267.928 108.422 267.62 109.128C267.317 109.833 267.165 110.7 267.165 111.727C267.165 112.755 267.317 113.621 267.62 114.327C267.928 115.032 268.359 115.567 268.913 115.932C269.467 116.296 270.115 116.479 270.859 116.479C271.602 116.479 272.251 116.296 272.805 115.932C273.359 115.567 273.787 115.032 274.09 114.327C274.398 113.621 274.552 112.755 274.552 111.727ZM288.932 104.455H292.007V113.901C292.007 114.961 291.754 115.889 291.248 116.685C290.746 117.48 290.042 118.1 289.138 118.545C288.234 118.986 287.18 119.206 285.978 119.206C284.77 119.206 283.714 118.986 282.81 118.545C281.906 118.1 281.203 117.48 280.701 116.685C280.199 115.889 279.948 114.961 279.948 113.901V104.455H283.023V113.638C283.023 114.192 283.144 114.684 283.385 115.115C283.632 115.546 283.977 115.884 284.422 116.131C284.867 116.377 285.386 116.5 285.978 116.5C286.574 116.5 287.093 116.377 287.533 116.131C287.978 115.884 288.321 115.546 288.563 115.115C288.809 114.684 288.932 114.192 288.932 113.638V104.455ZM306.704 104.455V119H304.048L297.719 109.845H297.613V119H294.538V104.455H297.237L303.515 113.602H303.643V104.455H306.704ZM308.691 106.99V104.455H320.637V106.99H316.184V119H313.144V106.99H308.691ZM322.604 119V104.455H328.343C329.441 104.455 330.379 104.651 331.155 105.044C331.936 105.432 332.531 105.984 332.938 106.699C333.35 107.409 333.556 108.245 333.556 109.206C333.556 110.172 333.347 111.003 332.931 111.699C332.514 112.39 331.91 112.92 331.12 113.29C330.334 113.659 329.382 113.844 328.265 113.844H324.422V111.372H327.767C328.355 111.372 328.842 111.292 329.23 111.131C329.619 110.97 329.908 110.728 330.097 110.406C330.291 110.084 330.388 109.684 330.388 109.206C330.388 108.723 330.291 108.316 330.097 107.984C329.908 107.653 329.616 107.402 329.223 107.232C328.835 107.056 328.345 106.969 327.753 106.969H325.679V119H322.604ZM330.459 112.381L334.074 119H330.679L327.142 112.381H330.459ZM334.271 104.455H337.716L341.033 110.719H341.175L344.491 104.455H347.936L342.631 113.858V119H339.577V113.858L334.271 104.455ZM359.735 113.943H362.348L363.662 115.634L364.955 117.139L367.391 120.193H364.522L362.846 118.134L361.986 116.912L359.735 113.943ZM367.611 111.727C367.611 113.313 367.31 114.663 366.709 115.776C366.113 116.888 365.298 117.738 364.266 118.325C363.239 118.908 362.083 119.199 360.8 119.199C359.507 119.199 358.347 118.905 357.32 118.318C356.292 117.731 355.48 116.881 354.884 115.768C354.287 114.656 353.989 113.309 353.989 111.727C353.989 110.141 354.287 108.792 354.884 107.679C355.48 106.566 356.292 105.719 357.32 105.136C358.347 104.549 359.507 104.256 360.8 104.256C362.083 104.256 363.239 104.549 364.266 105.136C365.298 105.719 366.113 106.566 366.709 107.679C367.31 108.792 367.611 110.141 367.611 111.727ZM364.493 111.727C364.493 110.7 364.339 109.833 364.032 109.128C363.729 108.422 363.3 107.887 362.746 107.523C362.192 107.158 361.543 106.976 360.8 106.976C360.057 106.976 359.408 107.158 358.854 107.523C358.3 107.887 357.869 108.422 357.561 109.128C357.258 109.833 357.107 110.7 357.107 111.727C357.107 112.755 357.258 113.621 357.561 114.327C357.869 115.032 358.3 115.567 358.854 115.932C359.408 116.296 360.057 116.479 360.8 116.479C361.543 116.479 362.192 116.296 362.746 115.932C363.3 115.567 363.729 115.032 364.032 114.327C364.339 113.621 364.493 112.755 364.493 111.727ZM378.874 104.455H381.949V113.901C381.949 114.961 381.696 115.889 381.189 116.685C380.687 117.48 379.984 118.1 379.08 118.545C378.175 118.986 377.122 119.206 375.919 119.206C374.712 119.206 373.656 118.986 372.751 118.545C371.847 118.1 371.144 117.48 370.642 116.685C370.14 115.889 369.889 114.961 369.889 113.901V104.455H372.964V113.638C372.964 114.192 373.085 114.684 373.327 115.115C373.573 115.546 373.919 115.884 374.364 116.131C374.809 116.377 375.327 116.5 375.919 116.5C376.516 116.5 377.034 116.377 377.474 116.131C377.92 115.884 378.263 115.546 378.504 115.115C378.75 114.684 378.874 114.192 378.874 113.638V104.455ZM387.554 104.455V119H384.479V104.455H387.554ZM389.928 119V117.175L397.187 106.99H389.914V104.455H401.05V106.28L393.785 116.464H401.065V119H389.928Z" fill="white"/>
<path d="M383.538 370L379.376 355.455H382.736L385.143 365.561H385.264L387.92 355.455H390.797L393.446 365.582H393.574L395.982 355.455H399.341L395.179 370H392.182L389.412 360.49H389.298L386.536 370H383.538ZM404.73 370.213C403.608 370.213 402.642 369.986 401.832 369.531C401.027 369.072 400.407 368.423 399.971 367.585C399.536 366.742 399.318 365.746 399.318 364.595C399.318 363.473 399.536 362.488 399.971 361.641C400.407 360.793 401.02 360.133 401.811 359.659C402.606 359.186 403.539 358.949 404.609 358.949C405.329 358.949 405.999 359.065 406.619 359.297C407.244 359.524 407.788 359.867 408.252 360.327C408.721 360.786 409.086 361.364 409.346 362.06C409.607 362.751 409.737 363.561 409.737 364.489V365.32H400.525V363.445H406.889C406.889 363.009 406.794 362.623 406.605 362.287C406.415 361.951 406.153 361.688 405.816 361.499C405.485 361.304 405.099 361.207 404.659 361.207C404.199 361.207 403.792 361.314 403.437 361.527C403.087 361.735 402.812 362.017 402.613 362.372C402.414 362.723 402.313 363.113 402.308 363.544V365.327C402.308 365.866 402.407 366.333 402.606 366.726C402.81 367.119 403.096 367.422 403.466 367.635C403.835 367.848 404.273 367.955 404.779 367.955C405.116 367.955 405.423 367.907 405.703 367.812C405.982 367.718 406.221 367.576 406.42 367.386C406.619 367.197 406.77 366.965 406.875 366.69L409.673 366.875C409.531 367.547 409.24 368.134 408.799 368.636C408.364 369.134 407.8 369.522 407.109 369.801C406.422 370.076 405.629 370.213 404.73 370.213ZM414.737 355.455V370H411.711V355.455H414.737ZM422.089 370.213C420.972 370.213 420.011 369.976 419.206 369.503C418.406 369.025 417.79 368.362 417.359 367.514C416.933 366.667 416.72 365.691 416.72 364.588C416.72 363.471 416.936 362.491 417.366 361.648C417.802 360.8 418.42 360.14 419.22 359.666C420.02 359.188 420.972 358.949 422.075 358.949C423.027 358.949 423.86 359.122 424.575 359.467C425.29 359.813 425.856 360.298 426.273 360.923C426.689 361.548 426.919 362.282 426.962 363.125H424.107C424.026 362.58 423.813 362.143 423.467 361.811C423.126 361.475 422.679 361.307 422.125 361.307C421.656 361.307 421.247 361.435 420.896 361.69C420.551 361.941 420.281 362.308 420.087 362.791C419.893 363.274 419.795 363.859 419.795 364.545C419.795 365.241 419.89 365.833 420.08 366.321C420.274 366.809 420.546 367.18 420.896 367.436C421.247 367.692 421.656 367.82 422.125 367.82C422.471 367.82 422.781 367.749 423.055 367.607C423.335 367.464 423.564 367.259 423.744 366.989C423.929 366.714 424.05 366.385 424.107 366.001H426.962C426.914 366.835 426.687 367.569 426.28 368.203C425.877 368.833 425.321 369.325 424.611 369.68C423.901 370.036 423.06 370.213 422.089 370.213ZM433.828 370.213C432.725 370.213 431.77 369.979 430.966 369.51C430.165 369.036 429.547 368.378 429.112 367.536C428.676 366.688 428.458 365.705 428.458 364.588C428.458 363.461 428.676 362.476 429.112 361.634C429.547 360.786 430.165 360.128 430.966 359.659C431.77 359.186 432.725 358.949 433.828 358.949C434.931 358.949 435.883 359.186 436.683 359.659C437.488 360.128 438.108 360.786 438.544 361.634C438.979 362.476 439.197 363.461 439.197 364.588C439.197 365.705 438.979 366.688 438.544 367.536C438.108 368.378 437.488 369.036 436.683 369.51C435.883 369.979 434.931 370.213 433.828 370.213ZM433.842 367.869C434.344 367.869 434.763 367.727 435.099 367.443C435.435 367.154 435.689 366.761 435.859 366.264C436.034 365.767 436.122 365.201 436.122 364.567C436.122 363.932 436.034 363.366 435.859 362.869C435.689 362.372 435.435 361.979 435.099 361.69C434.763 361.402 434.344 361.257 433.842 361.257C433.335 361.257 432.909 361.402 432.564 361.69C432.223 361.979 431.965 362.372 431.789 362.869C431.619 363.366 431.534 363.932 431.534 364.567C431.534 365.201 431.619 365.767 431.789 366.264C431.965 366.761 432.223 367.154 432.564 367.443C432.909 367.727 433.335 367.869 433.842 367.869ZM441.164 370V359.091H444.048V361.016H444.176C444.403 360.376 444.782 359.872 445.312 359.503C445.842 359.134 446.477 358.949 447.216 358.949C447.964 358.949 448.6 359.136 449.126 359.51C449.652 359.879 450.002 360.381 450.177 361.016H450.291C450.513 360.391 450.916 359.891 451.498 359.517C452.085 359.138 452.779 358.949 453.579 358.949C454.597 358.949 455.423 359.273 456.058 359.922C456.697 360.566 457.017 361.48 457.017 362.663V370H453.998V363.26C453.998 362.654 453.837 362.199 453.515 361.896C453.193 361.593 452.791 361.442 452.308 361.442C451.759 361.442 451.33 361.617 451.022 361.967C450.715 362.313 450.561 362.77 450.561 363.338V370H447.627V363.196C447.627 362.661 447.474 362.235 447.166 361.918C446.863 361.6 446.463 361.442 445.966 361.442C445.629 361.442 445.326 361.527 445.056 361.697C444.791 361.863 444.581 362.098 444.424 362.401C444.268 362.699 444.19 363.049 444.19 363.452V370H441.164ZM464.378 370.213C463.256 370.213 462.29 369.986 461.48 369.531C460.676 369.072 460.055 368.423 459.62 367.585C459.184 366.742 458.966 365.746 458.966 364.595C458.966 363.473 459.184 362.488 459.62 361.641C460.055 360.793 460.668 360.133 461.459 359.659C462.255 359.186 463.187 358.949 464.257 358.949C464.977 358.949 465.647 359.065 466.267 359.297C466.892 359.524 467.437 359.867 467.901 360.327C468.37 360.786 468.734 361.364 468.995 362.06C469.255 362.751 469.385 363.561 469.385 364.489V365.32H460.174V363.445H466.537C466.537 363.009 466.443 362.623 466.253 362.287C466.064 361.951 465.801 361.688 465.465 361.499C465.133 361.304 464.748 361.207 464.307 361.207C463.848 361.207 463.441 361.314 463.086 361.527C462.735 361.735 462.461 362.017 462.262 362.372C462.063 362.723 461.961 363.113 461.956 363.544V365.327C461.956 365.866 462.056 366.333 462.255 366.726C462.458 367.119 462.745 367.422 463.114 367.635C463.483 367.848 463.921 367.955 464.428 367.955C464.764 367.955 465.072 367.907 465.351 367.812C465.631 367.718 465.87 367.576 466.069 367.386C466.267 367.197 466.419 366.965 466.523 366.69L469.321 366.875C469.179 367.547 468.888 368.134 468.448 368.636C468.012 369.134 467.449 369.522 466.757 369.801C466.071 370.076 465.278 370.213 464.378 370.213ZM474.975 355.455L474.698 365.639H472.098L471.814 355.455H474.975ZM473.398 370.185C472.929 370.185 472.527 370.019 472.191 369.688C471.855 369.351 471.689 368.949 471.694 368.48C471.689 368.016 471.855 367.618 472.191 367.287C472.527 366.955 472.929 366.79 473.398 366.79C473.848 366.79 474.243 366.955 474.584 367.287C474.925 367.618 475.098 368.016 475.103 368.48C475.098 368.793 475.015 369.079 474.854 369.339C474.698 369.595 474.492 369.801 474.236 369.957C473.98 370.109 473.701 370.185 473.398 370.185Z" fill="#312E81"/>
<g clip-path="url(#clip0_22_59)">
<mask id="mask0_22_59" style="mask-type:luminance" maskUnits="userSpaceOnUse" x="347" y="220" width="162" height="116">
<path d="M509 220H347V336H509V220Z" fill="white"/>
</mask>
<g mask="url(#mask0_22_59)">
<path d="M378.747 239.479C381.871 239.479 384.402 236.955 384.402 233.843C384.402 230.73 381.871 228.207 378.747 228.207C375.624 228.207 373.093 230.73 373.093 233.843C373.093 236.955 375.624 239.479 378.747 239.479Z" fill="#2F2E41"/>
<path d="M361.524 301.697L364.999 289.688L366.181 290.056C366.181 290.056 364.777 299.045 362.559 301.328L361.524 301.697Z" fill="#2F2E41"/>
<path d="M374.756 237.232C374.756 237.232 375.199 241.947 374.165 243.273C373.13 244.599 374.83 247.178 374.83 247.178L377.934 250.861L382.517 248.799L383.183 244.968L382.739 242.315C382.739 242.315 381.187 240.768 381.852 237.968C382.517 235.169 374.756 237.232 374.756 237.232Z" fill="#FFB9B9"/>
<path opacity="0.1" d="M374.756 237.232C374.756 237.232 375.199 241.947 374.165 243.273C373.13 244.599 374.83 247.178 374.83 247.178L377.934 250.861L382.517 248.799L383.183 244.968L382.739 242.315C382.739 242.315 381.187 240.768 381.852 237.968C382.517 235.169 374.756 237.232 374.756 237.232Z" fill="black"/>
<path d="M377.417 325.421V328.441L381.482 329.252L381.113 324.242L377.417 325.421Z" fill="#FFB9B9"/>
<path d="M389.614 324.242L388.727 328.441L390.501 329.694L393.605 327.41L393.236 323.8L389.614 324.242Z" fill="#FFB9B9"/>
<path d="M381.852 328.883C381.852 328.883 380.3 326.268 377.417 327.907C377.417 327.907 376.9 330.799 376.382 331.02C375.865 331.241 372.982 335.44 376.382 335.808C379.782 336.177 381.482 335.072 381.482 335.072C381.482 335.072 380.817 335.642 381.852 335.347C382.887 335.053 382.443 333.432 382.443 333.432L381.852 328.883Z" fill="#2F2E41"/>
<path d="M391.979 327.115C391.979 327.115 389.687 328.736 389.318 327.999C388.948 327.262 388.357 327.336 388.357 327.336C388.357 327.336 386.287 335.112 387.618 335.481C388.474 335.691 389.374 335.645 390.205 335.348C390.205 335.348 391.979 334.109 391.979 335.067C391.979 336.025 396.932 335.956 399.001 335.882C401.071 335.809 399.962 334.261 399.962 334.261L397.227 331.609L394.123 327.115C394.123 327.115 392.718 325.862 391.979 327.115Z" fill="#2F2E41"/>
<path d="M370.173 277.827L373.277 307.518C373.277 307.518 374.978 325.642 375.273 325.936C375.569 326.231 377.491 327.189 381.704 325.936L380.743 302.213L382.517 287.478L386.583 297.645C386.583 297.645 387.544 324.979 388.209 324.979C388.874 324.979 392.94 326.305 393.901 324.684C394.862 323.063 394.714 305.602 394.714 305.602C394.714 305.602 394.27 278.048 391.018 277.164C387.766 276.28 370.173 277.827 370.173 277.827Z" fill="#2F2E41"/>
<path d="M378.747 239.958C381.564 239.958 383.848 237.682 383.848 234.875C383.848 232.067 381.564 229.791 378.747 229.791C375.931 229.791 373.647 232.067 373.647 234.875C373.647 237.682 375.931 239.958 378.747 239.958Z" fill="#FFB9B9"/>
<path d="M379.043 249.02C379.043 249.02 378.526 245.852 378.526 245.263C378.526 244.673 376.234 244.305 376.234 244.305C376.234 244.305 374.46 242.316 374.091 242.61C373.721 242.905 368.103 246.662 367.216 247.178C366.329 247.694 365.368 249.904 365.442 250.051C365.516 250.199 370.099 259.776 370.099 259.776C370.099 259.776 372.095 265.67 370.69 268.765C369.286 271.859 367.512 277.974 370.099 279.227C372.686 280.479 385.252 283.205 387.544 280.847C389.835 278.49 391.462 277.827 392.053 277.827C392.644 277.827 389.614 267.586 390.279 266.628C390.944 265.67 389.983 259.703 389.983 259.703L393.383 250.199C393.383 250.199 393.088 244.894 386.361 243.715L382.337 241.771L379.043 249.02Z" fill="#575A89"/>
<path d="M365.22 279.153C365.22 279.153 364.851 282.689 364.851 283.721C364.851 284.752 363.076 290.793 365.664 291.53C368.251 292.267 368.029 283.5 368.029 283.5V279.005L365.22 279.153Z" fill="#FFB9B9"/>
<path d="M395.897 275.838C395.897 275.838 396.34 279.227 396.119 279.964C395.897 280.7 398.262 287.11 395.084 287.478C391.905 287.847 392.718 279.816 392.718 279.816V275.838H395.897Z" fill="#FFB9B9"/>
<path d="M364.555 300.518L366.699 289.172H367.364C367.829 289.77 368.134 290.476 368.251 291.223C368.367 291.971 368.291 292.735 368.029 293.446C367.142 295.95 366.403 300.518 366.403 300.518H364.555Z" fill="#2F2E41"/>
<path d="M366.551 249.167L365.442 250.051C365.442 250.051 363.964 273.48 364.333 275.248C364.703 277.016 363.003 279.521 364.481 279.742C365.959 279.963 367.733 280.921 368.547 280.331C369.36 279.742 369.508 277.605 369.803 277.09C370.099 276.574 370.616 270.459 370.616 270.459C370.616 270.459 372.169 264.344 371.208 259.776C370.247 255.208 369.36 250.567 369.36 250.567L366.551 249.167Z" fill="#575A89"/>
<path d="M389.983 247.325L393.383 250.198L395.971 265.228C395.971 265.228 397.597 276.942 396.34 277.09C395.084 277.237 393.162 276.869 392.349 277.09C391.535 277.311 390.87 276.721 390.87 276.721C390.87 276.721 389.983 272.006 389.983 271.932C389.983 271.859 389.392 266.48 389.392 266.48L388.653 260.439L389.761 253.808L389.983 247.325Z" fill="#575A89"/>
<path d="M373.943 316.874C373.943 316.874 373.462 318.25 372.8 320.123C372.492 320.994 372.146 321.973 371.789 322.971C371.559 323.616 371.325 324.27 371.095 324.908C370.729 325.928 370.372 326.908 370.061 327.75C369.65 328.86 369.317 329.73 369.138 330.136C368.325 331.978 353.467 329.031 352.284 328.294C351.102 327.557 350.806 325.052 350.658 321.516C350.658 321.498 350.657 321.479 350.657 321.461C350.638 320.747 350.82 319.684 351.125 318.436C351.278 317.813 351.461 317.144 351.665 316.449C351.939 315.517 352.249 314.541 352.573 313.568C353.968 309.391 355.611 305.308 355.611 305.308C355.611 305.308 358.494 303.318 359.528 301.992C360.563 300.666 366.255 299.635 366.255 299.635C367.881 299.708 371.577 305.971 373.056 307.886C374.534 309.802 373.943 316.874 373.943 316.874Z" fill="#3F3D56"/>
<path d="M365.664 305.675C366.031 305.675 366.329 305.379 366.329 305.012C366.329 304.646 366.031 304.349 365.664 304.349C365.296 304.349 364.999 304.646 364.999 305.012C364.999 305.379 365.296 305.675 365.664 305.675Z" fill="#2F2E41"/>
<path d="M366.699 306.117C366.903 306.117 367.068 305.952 367.068 305.749C367.068 305.546 366.903 305.381 366.699 305.381C366.494 305.381 366.329 305.546 366.329 305.749C366.329 305.952 366.494 306.117 366.699 306.117Z" fill="#2F2E41"/>
<path d="M372.8 320.123C372.492 320.993 372.146 321.973 371.789 322.971L351.665 316.449C351.938 315.517 352.249 314.54 352.573 313.568L372.8 320.123Z" fill="#F2F2F2"/>
<path d="M371.095 324.908C370.729 325.928 370.372 326.908 370.061 327.749L350.657 321.46C350.638 320.746 350.82 319.683 351.125 318.436L371.095 324.908Z" fill="#F2F2F2"/>
<path d="M365.664 305.16C365.664 305.16 367.142 311.643 366.255 317.39C365.368 323.136 368.473 328.515 368.473 328.515" stroke="#2F2E41" stroke-width="3" stroke-miterlimit="10"/>
<path d="M366.699 305.676C366.699 305.676 363.816 316.137 363.742 317.611C363.668 319.084 362.485 329.62 361.007 330.725" stroke="#2F2E41" stroke-width="3" stroke-miterlimit="10"/>
<path d="M374.832 231.772C374.832 231.772 373.677 228.78 375.351 227.802L375.813 229.125C375.813 229.125 380.027 226.594 381.124 227.169L380.085 228.55C380.085 228.55 384.992 228.55 385.338 230.449L383.606 230.506C383.606 230.506 385.453 231.715 385.511 233.671L381.817 233.901L383.606 234.937C383.606 234.937 376.91 235.857 375.294 233.21L374.832 231.772Z" fill="#2F2E41"/>
<path d="M373.832 231.891C373.832 231.891 375.162 234.543 376.937 233.88C378.711 233.217 376.937 230.786 376.937 230.786L375.754 230.196L373.832 231.891Z" fill="#2F2E41"/>
<path d="M488.568 273.733L464.441 243.683C463.345 244.682 461.996 245.361 460.539 245.647C455.997 246.539 451.561 243.447 450.631 238.742C450.311 237.186 450.423 235.572 450.955 234.075C451.488 232.578 452.42 231.254 453.652 230.246L445.426 220L398.558 259.923L441.7 313.656L488.568 273.733Z" fill="#F2F2F2"/>
<path d="M458.589 244.219C462.346 244.219 465.391 241.184 465.391 237.44C465.391 233.696 462.346 230.661 458.589 230.661C454.833 230.661 451.787 233.696 451.787 237.44C451.787 241.184 454.833 244.219 458.589 244.219Z" fill="#F2F2F2"/>
<path d="M416.03 267.647L413.949 270.048L420.96 276.086L423.041 273.686L416.03 267.647Z" fill="#F9A826"/>
<path d="M461.102 310.577L459.021 312.978L465.235 318.33L467.317 315.93L461.102 310.577Z" fill="#F9A826"/>
<path d="M472.331 292.697V292.883C472.327 293.351 472.313 293.816 472.291 294.279C471.886 302.206 468.455 309.679 462.701 315.166C456.946 320.653 449.304 323.738 441.341 323.79C433.377 323.842 425.696 320.856 419.87 315.445C414.044 310.034 410.515 302.606 410.006 294.685C409.964 294.027 409.943 293.365 409.943 292.697C409.931 286.258 411.937 279.975 415.679 274.726C415.978 274.303 416.289 273.887 416.612 273.48C416.835 273.196 417.064 272.919 417.296 272.644C422.561 266.427 430.063 262.514 438.19 261.745C446.317 260.976 454.423 263.413 460.768 268.533C461.144 268.835 461.513 269.148 461.874 269.468C462.162 269.724 462.446 269.985 462.724 270.252C468.213 275.485 471.592 282.539 472.223 290.083C472.295 290.946 472.331 291.817 472.331 292.697Z" fill="#3F3D56"/>
<path d="M441.137 327.701C421.772 327.701 406.017 311.998 406.017 292.697C406.005 283.866 409.354 275.36 415.388 268.893L416.165 269.612C410.314 275.884 407.067 284.133 407.078 292.697C407.078 311.415 422.357 326.643 441.137 326.643C445.7 326.659 450.219 325.753 454.421 323.98C458.623 322.207 462.422 319.605 465.588 316.329L466.349 317.065C463.085 320.443 459.168 323.127 454.835 324.955C450.502 326.783 445.842 327.717 441.137 327.701Z" fill="#F9A826"/>
<path d="M446.23 326.961H437.317V335.844H446.23V326.961Z" fill="#F9A826"/>
<path d="M416.612 273.48C416.628 273.486 416.642 273.495 416.655 273.505C416.822 273.643 416.612 273.907 416.638 274.125C416.667 274.404 417.041 274.466 417.323 274.493C417.605 274.523 417.962 274.749 417.828 274.999C417.119 275.242 416.402 275.003 415.679 274.726C411.937 279.975 409.931 286.258 409.943 292.697C409.943 293.365 409.964 294.028 410.006 294.685C410.066 294.729 410.131 294.763 410.199 294.789C410.412 294.869 410.658 294.854 410.853 294.969C411.008 295.06 411.112 295.22 411.267 295.305C411.71 295.546 412.326 295.083 412.74 295.371C412.846 295.468 412.948 295.571 413.043 295.679C413.425 296.009 414.053 295.787 414.494 296.035C414.779 296.193 414.925 296.511 415.078 296.798C415.458 297.517 416.073 298.224 416.886 298.281C417.142 298.269 417.399 298.278 417.654 298.306C417.905 298.363 418.151 298.581 418.11 298.833C418.04 299.267 418.255 299.74 418.197 300.174C418.093 300.967 416.967 301.314 416.871 302.107C416.871 302.282 416.861 302.456 416.841 302.629C416.791 302.837 416.634 303.006 416.578 303.213C416.472 303.604 416.754 303.996 417.062 304.258C417.372 304.522 417.741 304.751 417.911 305.119C418.089 305.51 418.002 305.965 418.06 306.39C418.187 307.318 418.991 308.006 419.819 308.45C420.084 308.56 420.319 308.731 420.506 308.949C420.718 309.256 420.697 309.66 420.769 310.026C420.943 310.92 421.699 311.658 421.72 312.57C421.735 313.219 421.374 313.807 421.158 314.419C420.935 315.059 420.869 315.744 420.965 316.415C422.175 317.438 423.461 318.368 424.812 319.197C424.885 319.088 424.939 318.968 424.971 318.841C424.997 318.701 424.979 318.556 424.92 318.426C424.862 318.296 424.765 318.187 424.642 318.114C424.87 318.028 425.078 317.895 425.251 317.724C425.336 317.637 425.393 317.526 425.412 317.405C425.432 317.285 425.414 317.162 425.362 317.052C425.735 317.098 426.179 317.122 426.425 316.836C426.622 316.608 426.609 316.265 426.531 315.975C426.423 315.694 426.352 315.399 426.319 315.1C427.184 315.142 428.051 315.113 428.912 315.013C428.787 314.595 428.504 314.241 428.122 314.027C428.513 313.962 428.867 313.496 428.99 313.122C429.097 312.74 429.103 312.337 429.007 311.952C428.978 311.854 428.973 311.749 428.994 311.648C429.057 311.514 429.168 311.408 429.304 311.35C429.949 310.98 430.595 310.61 431.24 310.241C431.355 310.184 431.459 310.107 431.549 310.015C431.751 309.776 431.721 309.419 431.617 309.125C431.513 308.831 431.348 308.554 431.308 308.245C431.189 307.32 432.182 306.656 432.517 305.785C432.631 305.437 432.693 305.074 432.7 304.709C432.727 304.315 432.729 303.86 432.428 303.609C432.137 303.365 431.685 303.42 431.382 303.194C431.104 302.987 431.008 302.587 430.705 302.42C430.429 302.268 430.085 302.365 429.778 302.293C429.239 302.168 428.899 301.549 428.347 301.492C428.037 301.458 427.685 301.61 427.431 301.43C427.206 301.269 427.197 300.95 427.155 300.679C427.079 300.258 426.876 299.869 426.573 299.566C426.269 299.263 425.88 299.059 425.457 298.983C425.137 298.932 424.789 298.951 424.515 298.776C424.239 298.598 424.114 298.266 423.895 298.019C423.547 297.623 422.995 297.481 422.48 297.361C421.779 297.198 421.08 297.034 420.381 296.87C420.01 296.781 419.53 296.735 419.329 297.061C419.269 297.184 419.227 297.316 419.205 297.452C419.13 297.696 418.978 297.91 418.773 298.063C418.568 298.217 418.32 298.302 418.064 298.306C417.888 298.008 417.604 297.788 417.27 297.693C417.052 297.656 416.836 297.606 416.625 297.541C416.515 297.487 416.416 297.411 416.336 297.318C416.256 297.225 416.196 297.116 416.16 296.999C416.123 296.882 416.111 296.759 416.124 296.637C416.137 296.515 416.174 296.398 416.235 296.291C416.355 296.076 416.401 295.828 416.366 295.585C416.331 295.341 416.217 295.116 416.041 294.943C415.685 294.624 415.169 294.546 414.69 294.577C414.565 294.305 414.775 293.998 415 293.799C415.227 293.602 415.5 293.408 415.549 293.112C415.628 292.646 415.031 292.293 414.579 292.431C414.127 292.57 413.839 293.008 413.648 293.44C413.555 293.694 413.429 293.935 413.272 294.157C413.192 294.266 413.083 294.351 412.957 294.403C412.831 294.454 412.693 294.47 412.559 294.448C412.186 294.353 412.044 293.911 411.961 293.539C411.828 293.041 411.761 292.529 411.761 292.014C411.765 291.494 411.972 290.996 412.338 290.627C412.956 290.06 413.907 290.115 414.741 290.206C414.651 290.087 414.608 289.94 414.62 289.792C414.632 289.644 414.697 289.505 414.804 289.402C414.916 289.303 415.05 289.233 415.195 289.198C415.34 289.162 415.491 289.163 415.636 289.199C415.888 289.251 416.114 289.386 416.279 289.582C416.517 289.869 416.585 290.261 416.763 290.586C416.943 290.914 417.347 291.193 417.675 291.018C417.962 290.866 418.006 290.472 417.936 290.157C417.864 289.844 417.714 289.537 417.739 289.216C417.788 288.605 418.427 288.235 418.989 287.983C419.551 287.731 420.194 287.391 420.283 286.781C420.288 286.663 420.31 286.546 420.351 286.435C420.414 286.335 420.501 286.254 420.604 286.198C422.244 285.117 423.914 284.021 425.79 283.431C425.888 283.399 425.898 283.433 425.998 283.41C426.138 283.33 426.045 283.108 425.911 283.019C425.777 282.93 425.599 282.86 425.565 282.704C425.542 282.589 425.61 282.475 425.627 282.359C425.631 282.289 425.618 282.218 425.589 282.154C425.56 282.09 425.516 282.034 425.46 281.991C425.404 281.948 425.338 281.919 425.268 281.908C425.199 281.896 425.127 281.901 425.06 281.923C424.91 281.724 425.207 281.494 425.449 281.426C426.173 281.228 426.916 281.108 427.666 281.067C427.753 281.052 427.841 281.067 427.919 281.109C427.974 281.162 428.006 281.234 428.01 281.31C428.014 281.387 427.988 281.461 427.938 281.519C427.836 281.632 427.723 281.735 427.6 281.826C427.479 281.944 427.392 282.093 427.349 282.256C427.306 282.42 427.31 282.592 427.358 282.754C427.751 282.953 428.175 283.158 428.61 283.089C429.043 283.019 429.427 282.532 429.224 282.145C429.035 281.784 428.464 281.701 428.366 281.306C428.252 280.842 428.91 280.43 428.761 279.977C428.697 279.778 428.498 279.66 428.345 279.518C428.165 279.342 428.043 279.116 427.994 278.869C427.945 278.622 427.972 278.366 428.071 278.135C427.823 278.178 427.568 278.162 427.327 278.087C427.086 278.012 426.867 277.88 426.688 277.704C426.357 277.372 426.094 276.845 425.623 276.862C425.192 276.875 424.82 277.376 424.417 277.224C424.317 277.185 424.214 277.109 424.118 277.154C424.087 277.174 424.06 277.201 424.041 277.233C424.021 277.265 424.009 277.301 424.006 277.338C423.904 277.826 424.08 278.383 423.812 278.806C423.522 279.265 422.849 279.328 422.497 279.743C422.306 279.967 422.231 280.269 422.055 280.506C421.879 280.743 421.508 280.895 421.296 280.688C421.4 280.476 421.428 280.234 421.376 280.004C421.325 279.773 421.196 279.567 421.011 279.419C420.816 279.291 420.605 279.189 420.383 279.114C420.136 279.01 419.9 278.88 419.681 278.725C419.571 278.659 419.483 278.564 419.424 278.45C419.378 278.308 419.384 278.153 419.441 278.015C419.548 277.709 419.737 277.439 419.988 277.232C420.238 277.026 420.54 276.891 420.861 276.843C421.141 276.805 421.468 276.818 421.654 276.604C421.752 276.492 421.803 276.321 421.947 276.276C422.038 276.257 422.133 276.268 422.217 276.308C422.567 276.43 422.915 276.553 423.265 276.676C423.382 276.729 423.511 276.75 423.638 276.737C423.702 276.729 423.76 276.697 423.8 276.648C423.841 276.599 423.861 276.536 423.857 276.473C423.823 276.299 423.556 276.217 423.581 276.041C423.593 275.984 423.624 275.932 423.668 275.893C424.047 275.492 424.509 275.179 425.023 274.977C425.537 274.775 426.09 274.688 426.641 274.724C426.773 274.941 426.565 275.197 426.389 275.381C426.215 275.568 426.075 275.897 426.287 276.039C426.372 276.084 426.468 276.106 426.565 276.103C426.823 276.137 427.074 276.213 427.307 276.327C427.67 276.483 428.027 276.657 428.375 276.843C428.324 276.616 428.332 276.38 428.4 276.158C428.439 276.049 428.516 275.957 428.618 275.902C428.72 275.847 428.839 275.832 428.952 275.859C429.16 275.94 429.266 276.215 429.489 276.24C429.784 276.274 429.901 275.838 429.778 275.568C429.654 275.297 429.408 275.073 429.389 274.774C429.374 274.576 429.451 274.328 429.292 274.208C429.235 274.17 429.17 274.147 429.103 274.14C427.77 273.897 426.437 273.653 425.103 273.408C424.865 273.364 424.523 273.398 424.513 273.637C424.506 273.772 424.627 273.905 424.574 274.028C424.517 274.159 424.33 274.148 424.194 274.195C424.092 274.241 424.008 274.319 423.955 274.417C423.901 274.515 423.881 274.628 423.897 274.738C423.934 274.958 424.019 275.167 424.148 275.35C423.887 275.242 423.494 275.223 423.233 275.113C423.195 274.812 423.118 274.517 423.004 274.235C422.997 274.19 422.981 274.147 422.956 274.11C422.931 274.072 422.898 274.04 422.86 274.016C422.821 273.992 422.778 273.977 422.733 273.972C422.687 273.967 422.642 273.971 422.599 273.986C422.255 274.038 421.911 274.089 421.567 274.142C421.481 274.146 421.398 274.178 421.332 274.233C421.198 274.375 421.33 274.601 421.325 274.796C421.313 274.904 421.267 275.007 421.193 275.088C421.12 275.17 421.023 275.226 420.916 275.25C420.7 275.294 420.477 275.291 420.262 275.242C419.781 275.168 419.301 275.094 418.819 275.02C419.244 274.885 419.623 274.632 419.91 274.292C420.101 274.068 420.203 273.649 419.927 273.543C419.845 273.521 419.76 273.515 419.677 273.524C419.023 273.529 418.507 272.985 417.896 272.755C417.704 272.683 417.501 272.646 417.296 272.645L416.612 273.48Z" fill="#F9A826"/>
<path d="M472.291 294.279C472.216 294.379 472.118 294.46 472.004 294.513C471.891 294.567 471.767 294.592 471.641 294.586C470.977 294.529 470.697 293.575 470.039 293.467C469.981 293.452 469.919 293.458 469.865 293.484C469.768 293.537 469.751 293.668 469.744 293.778C469.717 294.324 469.693 294.891 469.908 295.394C470.22 296.13 471.028 296.748 470.858 297.528C469.946 297.107 469.471 296.086 469.256 295.106C469.04 294.127 469.006 293.099 468.62 292.173C468.325 292.547 467.709 292.238 467.442 291.845C467.187 291.473 467.03 291.041 466.784 290.663C466.538 290.286 466.16 289.948 465.71 289.927C465.237 289.905 464.825 290.229 464.465 290.536C464.151 290.767 463.887 291.059 463.69 291.394C463.438 291.902 463.503 292.499 463.491 293.063C463.478 293.672 463.348 294.317 462.93 294.766C462.512 295.212 461.742 295.369 461.282 294.965C461.059 294.733 460.9 294.448 460.821 294.138C460.32 292.684 459.904 291.202 459.573 289.7C459.497 290.043 459.193 290.485 458.905 290.284C458.84 290.229 458.788 290.161 458.752 290.085C458.213 289.178 457.218 288.632 456.21 288.304C455.204 287.979 454.145 287.826 453.15 287.467C452.592 287.265 452.058 287 451.56 286.678C451.434 286.864 451.36 287.08 451.347 287.304C451.333 287.528 451.381 287.752 451.484 287.951C451.596 288.146 451.769 288.299 451.977 288.386C452.185 288.473 452.416 288.489 452.634 288.431C452.855 288.359 453.042 288.207 453.26 288.131C453.479 288.057 453.774 288.093 453.869 288.304C453.963 288.505 453.823 288.748 453.893 288.96C453.997 289.279 454.482 289.305 454.652 289.597C454.702 289.712 454.714 289.841 454.685 289.963C454.656 290.086 454.589 290.196 454.493 290.278C454.298 290.436 454.082 290.569 453.852 290.671C453.139 291.067 452.632 291.741 452.008 292.266C451.384 292.792 450.504 293.175 449.761 292.839C449.937 291.944 448.87 291.289 448.672 290.398C448.607 290.104 448.64 289.793 448.549 289.508C448.416 289.093 448.046 288.81 447.745 288.497C447.379 288.113 447.094 287.659 446.906 287.163C446.718 286.667 446.632 286.139 446.652 285.61C446.669 285.242 446.737 284.867 446.652 284.508C446.569 284.15 446.27 283.804 445.901 283.818C445.058 283.856 443.995 283.92 443.554 283.203C443.395 282.947 443.327 282.573 443.556 282.376C443.646 282.319 443.746 282.281 443.85 282.263C443.955 282.245 444.062 282.249 444.165 282.272C444.799 282.334 445.432 282.397 446.066 282.458C446.51 282.501 446.989 282.537 447.371 282.306C447.753 282.076 447.919 281.46 447.565 281.187C447.308 280.988 446.845 280.999 446.769 280.684C446.707 280.419 447 280.121 446.841 279.899C446.728 279.743 446.474 279.785 446.319 279.903C446.184 280.043 446.037 280.171 445.88 280.286C445.576 280.443 445.215 280.293 444.889 280.191C444.562 280.09 444.125 280.081 443.968 280.383C443.789 280.72 444.123 281.164 443.949 281.502C443.715 281.949 442.93 281.695 442.603 282.08C442.23 282.52 442.858 283.18 442.733 283.742C442.571 283.822 442.392 283.858 442.213 283.848C442.033 283.838 441.859 283.782 441.708 283.685C441.559 283.584 441.441 283.446 441.365 283.283C441.29 283.121 441.26 282.941 441.279 282.763C441.309 282.509 441.442 282.249 441.353 282.01C441.257 281.825 441.099 281.681 440.906 281.602C440.29 281.261 439.675 280.922 439.059 280.584C438.887 280.902 439.104 281.293 439.376 281.532C439.645 281.769 439.985 281.949 440.163 282.262C440.276 282.479 440.301 282.73 440.234 282.965C440.167 283.2 440.013 283.401 439.802 283.527C439.775 283.545 439.745 283.557 439.713 283.562C439.681 283.568 439.649 283.567 439.617 283.558C439.588 283.541 439.562 283.518 439.542 283.491C439.522 283.464 439.507 283.433 439.499 283.4C439.174 282.568 438.684 281.75 437.903 281.316C437.12 280.881 435.997 280.971 435.484 281.701C435.363 281.875 435.28 282.073 435.174 282.257C434.612 283.233 433.402 283.693 432.273 283.664C432.163 283.671 432.053 283.645 431.957 283.59C431.774 283.465 431.783 283.199 431.81 282.979C431.851 282.668 431.889 282.359 431.929 282.048C431.93 281.858 432.004 281.676 432.135 281.538C432.345 281.373 432.646 281.477 432.914 281.473C433.116 281.464 433.31 281.393 433.47 281.27C433.63 281.147 433.747 280.978 433.807 280.785C433.861 280.591 433.861 280.386 433.806 280.193C433.751 279.999 433.645 279.823 433.497 279.686C433.376 279.571 433.213 279.428 433.277 279.273C433.303 279.231 433.337 279.194 433.379 279.166C433.42 279.139 433.467 279.12 433.517 279.112C433.994 278.975 434.501 278.939 434.97 278.774C435.441 278.611 435.897 278.277 436.01 277.793C436.044 277.644 436.059 277.465 436.192 277.391C436.26 277.364 436.332 277.349 436.405 277.348C436.66 277.312 436.892 277.182 437.056 276.983C437.22 276.785 437.303 276.533 437.29 276.276C437.514 276.12 437.831 276.236 438.049 276.403C438.266 276.57 438.459 276.79 438.724 276.862C439.218 276.997 439.696 276.559 440.209 276.557C440.426 276.557 440.649 276.634 440.85 276.56C441.056 276.486 441.179 276.283 441.336 276.132C441.495 275.98 441.771 275.889 441.918 276.052C441.875 275.745 441.835 275.441 441.793 275.136C442.043 275.199 442.303 275.208 442.557 275.162C442.81 275.116 443.051 275.016 443.263 274.87C442.728 274.69 442.196 274.51 441.661 274.33C441.605 274.316 441.553 274.289 441.51 274.25C441.394 274.125 441.51 273.93 441.604 273.789C441.831 273.448 441.869 272.888 441.495 272.719C441.241 272.602 440.95 272.742 440.706 272.877C440.316 273.093 439.925 273.311 439.535 273.527C439.499 273.749 439.77 273.876 439.938 274.024C440.04 274.114 440.112 274.233 440.145 274.365C440.178 274.497 440.17 274.636 440.123 274.764C440.075 274.891 439.989 275.001 439.878 275.079C439.766 275.158 439.633 275.2 439.496 275.202C439.573 275.302 439.627 275.418 439.653 275.541C439.679 275.664 439.677 275.792 439.647 275.914C439.386 275.933 439.123 275.953 438.86 275.972C438.816 275.98 438.771 275.98 438.727 275.972C438.684 275.963 438.642 275.946 438.605 275.921C438.52 275.847 438.533 275.716 438.512 275.606C438.477 275.474 438.403 275.356 438.3 275.267C438.197 275.178 438.07 275.121 437.935 275.104C437.664 275.074 437.391 275.099 437.13 275.178C437.017 275.218 436.893 275.215 436.782 275.17C436.719 275.128 436.672 275.067 436.647 274.996C436.6 274.851 436.593 274.697 436.624 274.548C436.655 274.399 436.724 274.261 436.825 274.146C437.029 273.921 437.253 273.715 437.495 273.531C438.044 273.052 438.448 272.429 438.66 271.733C439.093 271.551 439.541 271.306 439.976 271.124C440.326 270.962 440.692 270.84 441.069 270.758C441.423 270.704 441.783 270.687 442.141 270.707C442.629 270.716 443.119 270.724 443.607 270.735C444.043 270.716 444.478 270.779 444.891 270.919C445.292 271.084 445.646 271.441 445.674 271.873C445.682 271.922 445.678 271.972 445.661 272.019C445.644 272.066 445.616 272.108 445.578 272.141C445.522 272.172 445.458 272.187 445.394 272.183C444.988 272.196 444.816 272.298 444.411 272.313C444.668 272.585 444.957 272.873 445.33 272.922C445.988 273.006 446.461 272.327 446.765 271.737C446.775 271.887 446.845 272.027 446.958 272.127C447.071 272.227 447.218 272.279 447.369 272.272C447.532 272.245 447.687 272.184 447.826 272.095C449.131 271.384 450.593 271.007 452.08 270.999C452.066 270.887 452.093 270.773 452.158 270.68C452.223 270.587 452.32 270.522 452.43 270.496C452.734 270.437 453.006 270.697 453.152 270.967C453.296 271.238 453.388 271.551 453.621 271.754C453.852 271.957 454.3 271.947 454.391 271.655C454.48 271.374 454.185 271.132 453.941 270.965C453.695 270.8 453.438 270.494 453.604 270.248C454.852 269.971 456.11 269.696 457.39 269.641C457.607 269.648 457.824 269.61 458.026 269.531C458.127 269.489 458.21 269.415 458.264 269.32C458.318 269.226 458.338 269.116 458.323 269.009C458.044 269.074 457.752 269.055 457.484 268.954C457.215 268.853 456.983 268.675 456.817 268.442C458.13 268.334 459.505 268.239 460.768 268.533L461.874 269.468C461.664 269.686 461.383 269.891 461.536 270.109C461.587 270.159 461.648 270.197 461.715 270.22C461.782 270.243 461.854 270.25 461.925 270.242C462.192 270.246 462.459 270.252 462.725 270.252C468.213 275.485 471.592 282.539 472.223 290.083C471.777 290.066 471.368 290.629 471.425 291.119C471.493 291.688 471.905 292.145 472.2 292.636C472.248 292.716 472.292 292.798 472.331 292.883L472.291 294.279Z" fill="#F9A826"/>
<path d="M347 335.818H509" stroke="#3F3D56" stroke-width="2" stroke-miterlimit="10"/>
<path d="M413.835 234.551C415.321 234.551 416.526 233.35 416.526 231.868C416.526 230.386 415.321 229.185 413.835 229.185C412.348 229.185 411.143 230.386 411.143 231.868C411.143 233.35 412.348 234.551 413.835 234.551Z" stroke="#3F3D56" stroke-width="2" stroke-miterlimit="10"/>
<path d="M493.375 285.645C494.862 285.645 496.067 284.444 496.067 282.962C496.067 281.48 494.862 280.279 493.375 280.279C491.888 280.279 490.683 281.48 490.683 282.962C490.683 284.444 491.888 285.645 493.375 285.645Z" stroke="#3F3D56" stroke-width="2" stroke-miterlimit="10"/>
<path d="M474.998 258.916C476.485 258.916 477.69 257.715 477.69 256.233C477.69 254.751 476.485 253.55 474.998 253.55C473.511 253.55 472.306 254.751 472.306 256.233C472.306 257.715 473.511 258.916 474.998 258.916Z" stroke="#3F3D56" stroke-width="2" stroke-miterlimit="10"/>
<path d="M457.337 281.91C459.005 281.91 460.357 280.562 460.357 278.899C460.357 277.236 459.005 275.888 457.337 275.888C455.668 275.888 454.316 277.236 454.316 278.899C454.316 280.562 455.668 281.91 457.337 281.91Z" fill="#3F3D56"/>
<path d="M467.04 273.19C469.24 273.19 471.022 271.413 471.022 269.221C471.022 267.029 469.24 265.252 467.04 265.252C464.841 265.252 463.058 267.029 463.058 269.221C463.058 271.413 464.841 273.19 467.04 273.19Z" fill="white"/>
<path d="M471.067 265.106C469.999 264.067 468.559 263.493 467.066 263.512C465.573 263.53 464.149 264.139 463.106 265.204C460.935 267.423 457.835 278.625 457.835 278.625C457.835 278.625 468.995 275.259 471.166 273.041C472.209 271.976 472.784 270.541 472.766 269.053C472.747 267.565 472.136 266.145 471.067 265.106ZM465.218 271.082C464.849 270.723 464.595 270.263 464.488 269.759C464.381 269.256 464.426 268.733 464.618 268.255C464.809 267.778 465.139 267.367 465.564 267.076C465.99 266.785 466.492 266.627 467.008 266.62C467.524 266.614 468.03 266.76 468.463 267.041C468.895 267.321 469.235 267.723 469.438 268.196C469.641 268.668 469.7 269.191 469.605 269.696C469.511 270.202 469.268 270.668 468.908 271.036C468.425 271.53 467.764 271.812 467.073 271.821C466.381 271.829 465.714 271.564 465.218 271.082Z" fill="#57B894"/>
</g>
</g>
<rect x="271" y="446" width="311" height="30" rx="15" fill="#F59E0B"/>
<path d="M384.005 458.09C383.955 457.625 383.745 457.262 383.376 457.003C383.01 456.744 382.534 456.614 381.949 456.614C381.537 456.614 381.183 456.676 380.888 456.801C380.594 456.925 380.368 457.094 380.212 457.307C380.056 457.52 379.976 457.763 379.972 458.037C379.972 458.264 380.024 458.461 380.127 458.628C380.233 458.795 380.377 458.937 380.558 459.054C380.739 459.168 380.94 459.263 381.16 459.342C381.38 459.42 381.602 459.485 381.826 459.539L382.849 459.794C383.261 459.89 383.657 460.02 384.037 460.183C384.42 460.347 384.763 460.553 385.065 460.801C385.37 461.05 385.612 461.35 385.789 461.701C385.967 462.053 386.055 462.465 386.055 462.937C386.055 463.576 385.892 464.139 385.565 464.626C385.239 465.109 384.766 465.487 384.148 465.76C383.534 466.03 382.79 466.165 381.917 466.165C381.068 466.165 380.331 466.034 379.706 465.771C379.085 465.508 378.598 465.125 378.246 464.62C377.898 464.116 377.71 463.502 377.682 462.777H379.626C379.654 463.157 379.772 463.473 379.978 463.725C380.184 463.978 380.452 464.166 380.782 464.29C381.116 464.414 381.489 464.477 381.901 464.477C382.33 464.477 382.707 464.413 383.03 464.285C383.357 464.153 383.612 463.972 383.797 463.741C383.982 463.507 384.076 463.234 384.079 462.921C384.076 462.637 383.992 462.403 383.829 462.218C383.665 462.03 383.436 461.874 383.142 461.749C382.85 461.621 382.51 461.508 382.119 461.408L380.878 461.089C379.979 460.858 379.269 460.508 378.747 460.039C378.229 459.567 377.969 458.94 377.969 458.159C377.969 457.516 378.143 456.953 378.491 456.471C378.843 455.988 379.321 455.613 379.924 455.347C380.528 455.077 381.212 454.942 381.975 454.942C382.749 454.942 383.428 455.077 384.01 455.347C384.596 455.613 385.056 455.984 385.39 456.46C385.723 456.932 385.896 457.475 385.906 458.09H384.005ZM391.818 457.818V459.31H387.114V457.818H391.818ZM388.275 455.858H390.204V463.539C390.204 463.798 390.243 463.997 390.321 464.136C390.402 464.271 390.509 464.363 390.64 464.413C390.772 464.462 390.917 464.487 391.077 464.487C391.198 464.487 391.308 464.478 391.407 464.461C391.51 464.443 391.589 464.427 391.642 464.413L391.967 465.92C391.864 465.956 391.716 465.995 391.525 466.037C391.336 466.08 391.106 466.105 390.832 466.112C390.349 466.126 389.914 466.053 389.527 465.893C389.14 465.73 388.833 465.478 388.606 465.137C388.382 464.796 388.272 464.37 388.275 463.859V455.858ZM395.785 466.165C395.266 466.165 394.799 466.073 394.384 465.888C393.972 465.7 393.645 465.423 393.404 465.057C393.166 464.691 393.047 464.24 393.047 463.704C393.047 463.243 393.132 462.861 393.302 462.559C393.473 462.257 393.705 462.016 394 461.835C394.295 461.653 394.627 461.517 394.996 461.424C395.369 461.328 395.754 461.259 396.152 461.217C396.632 461.167 397.02 461.123 397.319 461.083C397.617 461.041 397.834 460.977 397.969 460.892C398.107 460.803 398.176 460.666 398.176 460.482V460.45C398.176 460.048 398.057 459.738 397.819 459.517C397.581 459.297 397.239 459.187 396.791 459.187C396.319 459.187 395.944 459.29 395.667 459.496C395.394 459.702 395.209 459.945 395.113 460.226L393.313 459.97C393.455 459.473 393.689 459.058 394.016 458.724C394.343 458.386 394.742 458.134 395.215 457.967C395.687 457.797 396.209 457.712 396.781 457.712C397.175 457.712 397.567 457.758 397.958 457.85C398.349 457.942 398.705 458.095 399.029 458.308C399.352 458.518 399.611 458.804 399.806 459.166C400.005 459.528 400.105 459.981 400.105 460.524V466H398.251V464.876H398.187C398.07 465.103 397.905 465.316 397.692 465.515C397.482 465.711 397.218 465.869 396.898 465.989C396.582 466.107 396.211 466.165 395.785 466.165ZM396.285 464.748C396.672 464.748 397.008 464.672 397.292 464.519C397.576 464.363 397.795 464.157 397.947 463.901C398.104 463.646 398.182 463.367 398.182 463.065V462.101C398.121 462.151 398.018 462.197 397.873 462.239C397.731 462.282 397.571 462.319 397.393 462.351C397.216 462.383 397.04 462.412 396.866 462.436C396.692 462.461 396.541 462.483 396.413 462.5C396.126 462.539 395.868 462.603 395.641 462.692C395.414 462.781 395.234 462.905 395.103 463.065C394.971 463.221 394.906 463.424 394.906 463.672C394.906 464.027 395.035 464.295 395.295 464.477C395.554 464.658 395.884 464.748 396.285 464.748ZM402.044 466V457.818H403.913V459.182H403.998C404.148 458.71 404.403 458.346 404.765 458.09C405.131 457.831 405.548 457.701 406.017 457.701C406.124 457.701 406.243 457.706 406.374 457.717C406.509 457.724 406.621 457.737 406.71 457.754V459.528C406.628 459.5 406.498 459.475 406.321 459.453C406.147 459.429 405.978 459.416 405.815 459.416C405.463 459.416 405.147 459.493 404.867 459.645C404.59 459.794 404.371 460.002 404.211 460.268C404.052 460.535 403.972 460.842 403.972 461.19V466H402.044ZM412.516 457.818V459.31H407.812V457.818H412.516ZM408.974 455.858H410.902V463.539C410.902 463.798 410.941 463.997 411.019 464.136C411.101 464.271 411.207 464.363 411.339 464.413C411.47 464.462 411.616 464.487 411.775 464.487C411.896 464.487 412.006 464.478 412.106 464.461C412.209 464.443 412.287 464.427 412.34 464.413L412.665 465.92C412.562 465.956 412.415 465.995 412.223 466.037C412.035 466.08 411.804 466.105 411.53 466.112C411.047 466.126 410.612 466.053 410.225 465.893C409.838 465.73 409.531 465.478 409.304 465.137C409.08 464.796 408.97 464.37 408.974 463.859V455.858ZM421.935 457.818V459.31H417.231V457.818H421.935ZM418.392 455.858H420.321V463.539C420.321 463.798 420.36 463.997 420.438 464.136C420.52 464.271 420.626 464.363 420.758 464.413C420.889 464.462 421.035 464.487 421.194 464.487C421.315 464.487 421.425 464.478 421.525 464.461C421.628 464.443 421.706 464.427 421.759 464.413L422.084 465.92C421.981 465.956 421.834 465.995 421.642 466.037C421.454 466.08 421.223 466.105 420.949 466.112C420.466 466.126 420.031 466.053 419.644 465.893C419.257 465.73 418.95 465.478 418.723 465.137C418.499 464.796 418.389 464.37 418.392 463.859V455.858ZM425.651 461.206V466H423.723V455.091H425.609V459.208H425.705C425.896 458.747 426.193 458.383 426.594 458.116C426.999 457.847 427.514 457.712 428.139 457.712C428.707 457.712 429.203 457.831 429.625 458.069C430.048 458.306 430.374 458.654 430.605 459.113C430.84 459.571 430.957 460.13 430.957 460.79V466H429.029V461.089C429.029 460.538 428.887 460.11 428.602 459.805C428.322 459.496 427.928 459.342 427.42 459.342C427.079 459.342 426.774 459.416 426.504 459.565C426.237 459.711 426.028 459.922 425.875 460.199C425.726 460.476 425.651 460.812 425.651 461.206ZM436.545 466.16C435.724 466.16 435.016 465.989 434.419 465.648C433.826 465.304 433.37 464.817 433.05 464.189C432.731 463.557 432.571 462.813 432.571 461.957C432.571 461.115 432.731 460.377 433.05 459.741C433.373 459.102 433.824 458.605 434.403 458.25C434.982 457.891 435.662 457.712 436.443 457.712C436.948 457.712 437.423 457.793 437.871 457.957C438.322 458.116 438.72 458.365 439.064 458.702C439.412 459.04 439.686 459.469 439.884 459.991C440.083 460.51 440.183 461.128 440.183 461.845V462.436H433.476V461.137H438.334C438.331 460.767 438.251 460.439 438.095 460.151C437.938 459.86 437.72 459.631 437.439 459.464C437.162 459.297 436.839 459.214 436.47 459.214C436.076 459.214 435.73 459.31 435.431 459.501C435.133 459.69 434.9 459.938 434.733 460.247C434.57 460.553 434.487 460.888 434.483 461.254V462.388C434.483 462.864 434.57 463.273 434.744 463.614C434.918 463.951 435.161 464.21 435.474 464.391C435.786 464.569 436.152 464.658 436.571 464.658C436.852 464.658 437.106 464.619 437.333 464.54C437.56 464.459 437.757 464.34 437.924 464.184C438.091 464.027 438.217 463.834 438.302 463.603L440.103 463.805C439.989 464.281 439.773 464.697 439.453 465.052C439.137 465.403 438.732 465.677 438.238 465.872C437.745 466.064 437.18 466.16 436.545 466.16ZM450.995 469.068V464.711H450.915C450.815 464.91 450.671 465.121 450.483 465.345C450.295 465.565 450.046 465.753 449.737 465.909C449.429 466.066 449.04 466.144 448.571 466.144C447.928 466.144 447.353 465.979 446.845 465.648C446.337 465.318 445.936 464.839 445.641 464.21C445.347 463.582 445.199 462.818 445.199 461.92C445.199 461.011 445.348 460.244 445.647 459.619C445.948 458.99 446.355 458.516 446.866 458.196C447.378 457.873 447.948 457.712 448.576 457.712C449.056 457.712 449.45 457.793 449.759 457.957C450.068 458.116 450.313 458.31 450.494 458.537C450.675 458.761 450.815 458.972 450.915 459.171H451.032V457.818H452.928V469.068H450.995ZM449.109 464.562C449.517 464.562 449.865 464.452 450.153 464.232C450.441 464.008 450.659 463.697 450.808 463.299C450.957 462.902 451.032 462.438 451.032 461.909C451.032 461.38 450.957 460.92 450.808 460.529C450.663 460.139 450.446 459.835 450.158 459.619C449.874 459.402 449.524 459.294 449.109 459.294C448.679 459.294 448.321 459.406 448.033 459.629C447.745 459.853 447.529 460.162 447.383 460.556C447.237 460.95 447.165 461.401 447.165 461.909C447.165 462.42 447.237 462.877 447.383 463.278C447.532 463.676 447.751 463.99 448.038 464.221C448.329 464.448 448.686 464.562 449.109 464.562ZM460.125 462.559V457.818H462.053V466H460.183V464.546H460.098C459.913 465.004 459.61 465.379 459.187 465.67C458.768 465.961 458.251 466.107 457.637 466.107C457.101 466.107 456.627 465.988 456.215 465.75C455.806 465.508 455.487 465.158 455.256 464.7C455.025 464.239 454.91 463.681 454.91 463.028V457.818H456.838V462.729C456.838 463.248 456.98 463.66 457.264 463.965C457.548 464.271 457.921 464.423 458.383 464.423C458.667 464.423 458.942 464.354 459.208 464.216C459.475 464.077 459.693 463.871 459.864 463.598C460.038 463.321 460.125 462.974 460.125 462.559ZM464.036 466V457.818H465.964V466H464.036ZM465.005 456.657C464.7 456.657 464.437 456.556 464.217 456.353C463.997 456.147 463.887 455.901 463.887 455.613C463.887 455.322 463.997 455.075 464.217 454.873C464.437 454.667 464.7 454.564 465.005 454.564C465.314 454.564 465.577 454.667 465.794 454.873C466.014 455.075 466.124 455.322 466.124 455.613C466.124 455.901 466.014 456.147 465.794 456.353C465.577 456.556 465.314 456.657 465.005 456.657ZM467.84 466V464.775L472.059 459.485V459.416H467.979V457.818H474.419V459.134L470.402 464.333V464.402H474.557V466H467.84Z" fill="white"/>
<defs>
<clipPath id="clip0_22_59">
<rect width="162" height="116" fill="white" transform="translate(347 220)"/>
</clipPath>
</defs>
</svg>
